<svg xmlns="http://www.w3.org/2000/svg" xmlns:xlink="http://www.w3.org/1999/xlink" width="55.439" height="58.577" viewBox="0 0 55.439 58.577">
  <defs>
    <filter id="Ellipse_81" x="0" y="3.138" width="55.439" height="55.439" filterUnits="userSpaceOnUse">
      <feOffset dy="3" input="SourceAlpha"/>
      <feGaussianBlur stdDeviation="3" result="blur"/>
      <feFlood flood-opacity="0.161"/>
      <feComposite operator="in" in2="blur"/>
      <feComposite in="SourceGraphic"/>
    </filter>
  </defs>
  <g id="Group_3094" data-name="Group 3094" transform="translate(-993.989 -1386.468)">
    <g id="Group_1222" data-name="Group 1222" transform="translate(1002.989 1395.606)">
      <g id="Group_1217" data-name="Group 1217" transform="translate(0 0)">
        <g id="Group_1155" data-name="Group 1155" transform="matrix(-0.391, 0.921, -0.921, -0.391, 37.439, 11.156)">
          <g transform="matrix(-0.39, -0.92, 0.92, -0.39, -0.54, 50.68)" filter="url(#Ellipse_81)">
            <circle id="Ellipse_81-2" data-name="Ellipse 81" cx="14.276" cy="14.276" r="14.276" transform="translate(46.44 20.29) rotate(113)" fill="#f83066"/>
          </g>
        </g>
      </g>
      <path id="Path_3231" data-name="Path 3231" d="M6.1,0,0,10.6l6.741-.137L6.1,19.2l7.2-12.343-7,.123Z" transform="translate(12.066 9.119)" fill="#ffe766"/>
    </g>
    <g id="Polygon_15" data-name="Polygon 15" transform="translate(1011.531 1390.302)" fill="#f83066">
      <path d="M 17.10932350158691 6.839820861816406 L 3.075183629989624 6.839820861816406 C 2.73819375038147 6.839820861816406 2.626033782958984 6.575460910797119 2.599693775177002 6.494441032409668 C 2.573343753814697 6.413420677185059 2.508563756942749 6.133660793304443 2.781093597412109 5.935451030731201 L 9.798173904418945 0.8321309089660645 C 9.884193420410156 0.7695608735084534 9.985883712768555 0.7365009188652039 10.09225368499756 0.7365009188652039 C 10.19862365722656 0.7365009188652039 10.30031394958496 0.7695608735084534 10.38633346557617 0.8321309089660645 L 17.40340423583984 5.935451030731201 C 17.67594337463379 6.133660793304443 17.61116409301758 6.413420677185059 17.58481407165527 6.494441032409668 C 17.55847358703613 6.575460910797119 17.44631385803223 6.839820861816406 17.10932350158691 6.839820861816406 Z" stroke="none"/>
      <path d="M 10.09225368499756 1.236490726470947 L 10.09225368499756 1.23650074005127 L 3.075183868408203 6.339820861816406 L 17.10932350158691 6.339820861816406 L 10.09255409240723 1.236510753631592 C 10.0925235748291 1.23650074005127 10.09240341186523 1.236490726470947 10.09225368499756 1.236490726470947 M 10.09225368499756 0.2364959716796875 C 10.29867649078369 0.2364959716796875 10.50509834289551 0.3002510070800781 10.68042373657227 0.4277610778808594 L 17.69749450683594 5.531080722808838 C 18.48074340820312 6.100710868835449 18.07780456542969 7.339820861816406 17.10932350158691 7.339820861816406 L 3.075183868408203 7.339820861816406 C 2.10670280456543 7.339820861816406 1.703763961791992 6.100710868835449 2.48701286315918 5.531080722808838 L 9.504083633422852 0.4277610778808594 C 9.679409027099609 0.3002510070800781 9.885830879211426 0.2364959716796875 10.09225368499756 0.2364959716796875 Z" stroke="none" fill="#f83066"/>
    </g>
    <rect id="Rectangle_10342" data-name="Rectangle 10342" width="48" height="48" transform="translate(997.709 1386.468)" fill="#fff" opacity="0"/>
  </g>
</svg>
