<svg xmlns="http://www.w3.org/2000/svg" width="36" height="36" viewBox="0 0 36 36">
  <g id="Group_3059" data-name="Group 3059" transform="translate(-1512 -490)">
    <path id="Subtraction_51" data-name="Subtraction 51" d="M-7610.713-1210.055c-.4,0-.8,0-1.194,0a2.065,2.065,0,0,1-1.951-1.337,2.137,2.137,0,0,1-.137-.724c0-3.133,0-6.323,0-9.408v-.628q0-1.671,0-3.342,0-6.515,0-13.027a2.067,2.067,0,0,1,2.149-2.126h2.345v4.792h14.755v-4.792h2.553a2.151,2.151,0,0,1,1.53.6,2.1,2.1,0,0,1,.609,1.514c0,2.931,0,6.063,0,9.13v.2c0,2.873,0,5.683,0,8.211,0,1.636,0,3.021,0,4.406s0,2.771,0,4.406a2.083,2.083,0,0,1-2.136,2.124h-18.518Zm3.134-15.178h0l-2.294,2.623,6.131,5.687.005,0,11.371-12.994-2.528-2.344-9.079,10.371-3.606-3.347Zm11.288-12.36h-11.476v-3.055H-7605a.309.309,0,0,0,.011-.072,2.221,2.221,0,0,1,1-1.632,3.267,3.267,0,0,1,1.961-.647,3.3,3.3,0,0,1,2.032.7,2.189,2.189,0,0,1,.932,1.63.049.049,0,0,0,0,.014l2.775.005v3.054Zm-5.739-4.688a.538.538,0,0,0-.54.533.538.538,0,0,0,.54.533.537.537,0,0,0,.54-.533A.537.537,0,0,0-7602.031-1242.28Z" transform="translate(9132 1735)" fill="#dce0ec" stroke="rgba(0,0,0,0)" stroke-width="1"/>
    <rect id="Rectangle_20812" data-name="Rectangle 20812" width="36" height="36" transform="translate(1512 490)" fill="#fff" opacity="0"/>
  </g>
</svg>
