<svg xmlns="http://www.w3.org/2000/svg" xmlns:xlink="http://www.w3.org/1999/xlink" width="446.715" height="481.255" viewBox="0 0 446.715 481.255">
  <defs>
    <linearGradient id="linear-gradient" x1="-0.493" y1="-0.612" x2="0.861" y2="1.081" gradientUnits="objectBoundingBox">
      <stop offset="0" stop-color="#d9dae1" stop-opacity="0"/>
      <stop offset="0.46" stop-color="#fff" stop-opacity="0.514"/>
      <stop offset="0.619" stop-color="#b7b8be" stop-opacity="0.008"/>
      <stop offset="1" stop-color="#d3d3d6"/>
    </linearGradient>
    <linearGradient id="linear-gradient-2" x1="-0.43" y1="-2.058" x2="1.147" y2="1.301" gradientUnits="objectBoundingBox">
      <stop offset="0" stop-color="#d9dae1" stop-opacity="0"/>
      <stop offset="0.532" stop-color="#fff" stop-opacity="0.627"/>
      <stop offset="0.668" stop-color="#fff" stop-opacity="0.584"/>
      <stop offset="0.779" stop-color="#fff" stop-opacity="0.345"/>
      <stop offset="0.947" stop-color="#fff"/>
      <stop offset="1" stop-color="#d3d3d6"/>
    </linearGradient>
    <linearGradient id="linear-gradient-3" x1="-0.382" y1="-0.554" x2="1" y2="4.651" gradientUnits="objectBoundingBox">
      <stop offset="0" stop-color="#d9dae1" stop-opacity="0"/>
      <stop offset="0.481" stop-color="#fff" stop-opacity="0.776"/>
      <stop offset="0.798" stop-color="#fff" stop-opacity="0.306"/>
      <stop offset="1" stop-color="#d3d3d6"/>
    </linearGradient>
    <linearGradient id="linear-gradient-10" x1="-0.493" y1="-0.612" x2="1.221" y2="3.761" xlink:href="#linear-gradient"/>
    <linearGradient id="linear-gradient-14" x1="-0.493" y1="-0.612" x2="0" y2="7.286" xlink:href="#linear-gradient"/>
    <linearGradient id="linear-gradient-15" x1="-0.493" y1="-0.612" x2="1.16" y2="1.186" gradientUnits="objectBoundingBox">
      <stop offset="0" stop-color="#d9dae1" stop-opacity="0"/>
      <stop offset="0.429" stop-color="#fff" stop-opacity="0.647"/>
      <stop offset="0.581" stop-color="#b7b8be" stop-opacity="0.008"/>
      <stop offset="0.709" stop-color="#bfc0c5" stop-opacity="0.306"/>
      <stop offset="1" stop-color="#d3d3d6"/>
    </linearGradient>
    <linearGradient id="linear-gradient-17" x1="87.301" y1="1.43" x2="88.098" y2="-0.032" gradientUnits="objectBoundingBox">
      <stop offset="0" stop-color="#d9dae1" stop-opacity="0"/>
      <stop offset="0.37" stop-color="#fff" stop-opacity="0.514"/>
      <stop offset="1" stop-color="#d3d3d6"/>
      <stop offset="1"/>
    </linearGradient>
    <linearGradient id="linear-gradient-18" x1="88.661" y1="1.342" x2="88.098" y2="-0.032" xlink:href="#linear-gradient-17"/>
    <linearGradient id="linear-gradient-23" x1="-0.957" y1="-0.21" x2="1.716" y2="1.165" gradientUnits="objectBoundingBox">
      <stop offset="0.044" stop-color="#fff"/>
      <stop offset="0.081" stop-color="#f5f7fb"/>
      <stop offset="0.182" stop-color="#e1e8f3"/>
      <stop offset="0.283" stop-color="#d5dfee"/>
      <stop offset="0.382" stop-color="#d1dced"/>
      <stop offset="0.455" stop-color="#d4deee"/>
      <stop offset="0.523" stop-color="#e0e7f2"/>
      <stop offset="0.589" stop-color="#f3f5fa"/>
      <stop offset="0.621" stop-color="#fff"/>
      <stop offset="0.726" stop-color="#e8edf6"/>
      <stop offset="0.853" stop-color="#d1dced"/>
    </linearGradient>
  </defs>
  <g id="Group_3092" data-name="Group 3092" transform="translate(-1026.643 -1456.309)">
    <g id="Group_2763" data-name="Group 2763" transform="translate(670.277 1102.083)">
      <g id="Group_2759" data-name="Group 2759" transform="translate(356.366 354.227)">
        <path id="Path_1058" data-name="Path 1058" d="M3670.414,4044.57a19.455,19.455,0,0,1-3.892.846c-6.345.086-12.694-.047-19.039.076-2.359.046-4.71.834-7.063.824-2.585-.01-5.164-.763-7.752-.811-4.372-.079-8.784.5-13.113.1a15.69,15.69,0,0,1-7.274-2.917,126.288,126.288,0,0,1-11.509-9.519c-3.936-3.587-7.759-7.321-11.386-11.219-6.7-7.2-13.318-14.494-19.737-21.949-1.023-1.19-1.149-3.43-1.152-5.186q-.09-61.965-.047-123.932,0-119.25-.053-238.5a11.2,11.2,0,0,1,3.57-8.845c3.638-3.49,6.841-7.434,10.229-11.183l-1-.237c-.1-1-.645-2.305-.213-2.965,2.047-3.13,4.176-6.008,8.778-5.834,1.459.054,3.056-2.254,4.51-3.568,5.922-5.353,11.89-10.657,17.674-16.155a10.39,10.39,0,0,1,7.649-3.114q41.2.076,82.391.029h4.034l.344-3.423.359-.064.5,3.31h7.866l.536-3.816.756-.085c.128,1.209.256,2.418.432,4.078,1.175,0,2.406,0,3.637,0,14.655-.023,29.309.038,43.962-.153,2.417-.032,4.794-1.322,7.24-1.732,1.206-.2,2.524.4,3.8.424,4.216.087,8.434.085,12.652.107,2.518.014,5.045-.124,7.553.043,5.02.336,10.026,1.143,15.045,1.208,13.485.174,26.975.059,40.72.059.153-1.41.293-2.7.433-3.986l.745-.093c.17,1.231.339,2.46.536,3.9h8.022c.085-1.1.169-2.185.253-3.275l.426-.031c.118,1.03.235,2.059.4,3.533,1.289,0,2.633,0,3.977,0,27.346-.023,54.693-.014,82.039-.112a11.587,11.587,0,0,1,8.216,3.327c4.134,3.686,8.689,6.9,12.814,10.593,2.379,2.132,4.2,4.879,6.384,7.239,2.3,2.48,4.739,4.831,7.125,7.231,1.62,1.629,3.332,3.177,4.865,4.884,3.075,3.425,5.9,7.094,9.133,10.352a10.008,10.008,0,0,1,3.069,7.642q-.074,80.14-.036,160.281,0,101.248.062,202.5a10.085,10.085,0,0,1-3.266,7.874c-3.687,3.617-7.014,7.6-10.466,11.393.8.893,1.741,1.452,1.785,2.074.17,2.475-5.788,7.108-8.326,6.806a3.445,3.445,0,0,0-2.52.771c-3.2,3.18-6.122,6.659-9.434,9.715-4,3.694-8.2,7.2-12.535,10.5a10.214,10.214,0,0,1-5.317,1.794c-4.48.276-8.985.171-13.48.166-11.169-.013-22.338-.021-33.506-.124a31.272,31.272,0,0,1-5-.834q1.771-3.538,3.542-7.073-.572,3.236-1.157,6.494h51.059l-2.466-6.48c-2.055,0-3.9,0-5.735,0l-41.815.086c-1.141-7.417-2.242-14.84-3.435-22.249-1.5-9.329-3.113-18.642-4.609-27.972-1.725-10.761-3.375-21.534-5.058-32.3l-.34.041v88.845l10.11.509a9.888,9.888,0,0,1-2.863.933q-105.127.209-210.254.327c-4.006,0-8.015.072-12.018-.058-.838-.028-1.652-.8-2.481-1.231q5.1-.246,10.228-.487v-88.832a35.567,35.567,0,0,0-1.3,5.951q-2.209,13.992-4.418,27.984-2.277,14.321-4.589,28.639c-1.075,6.61-2.2,13.209-3.312,19.812h-47.508c-.8,2.294-1.525,4.4-2.3,6.638h51.036c-.471-2.371-.9-4.558-1.338-6.745Zm13.708-.938,200.036,0,.143.125c3.478,1.091,1.88-1.811,1.884-2.757q.143-44.639.078-89.279v-8.465H3682.023v8.4q0,44.121,0,88.241a11.244,11.244,0,0,0,.133,3.088c.118.4,1.175.532,1.8.786Zm218.2-7.874c.876.1,1.44.223,2,.223,14.413.021,28.827.075,43.24-.046a6.193,6.193,0,0,0,3.771-1.864c12.436-12.3,24.743-24.732,37.211-37a7.724,7.724,0,0,0,2.277-6.124q-.081-65.465-.112-130.929,0-57.184.1-114.368.022-55.619-.1-111.237a7.518,7.518,0,0,0-1.919-4.79c-12.344-12.554-24.878-24.923-37.221-37.479-1.8-1.835-3.726-1.977-5.9-1.976q-72.538.029-145.079.066-52.178,0-104.354-.085c-23.962,0-47.924.1-71.885.052-3.3-.007-6.071.124-8.694,2.818-11.558,11.874-23.352,23.518-35.108,35.2a9.365,9.365,0,0,0-3.131,7.2c.163,14.5.175,28.995.167,43.493q-.029,57.127-.11,114.252c0,33.955.107,67.908.108,101.862,0,32.447-.1,64.893-.038,97.34a6.582,6.582,0,0,0,1.848,4.129c12.368,12.532,24.883,24.918,37.234,37.467,1.777,1.806,3.653,2.042,5.869,2.034q15.75-.06,31.5-.055c3.9,0,7.8,0,11.959,0,1.046-6.8,2.006-13.337,3.066-19.858,1.985-12.212,4.065-24.409,6.036-36.622,1.814-11.245,3.73-22.48,5.187-33.772.443-3.432,1.764-3.889,4.774-3.885q98.661.121,197.322.062h4.466c-1.711-5.313-.778-8.672,2.748-10.607,3.2-1.757,6.37-1.175,8.885,1.637a7.315,7.315,0,0,1,.276,9.164c-2.345,3.069-5.693,3.4-11.155.931Zm-283.022-447.1h329.67c.762-2.24,1.469-4.323,2.246-6.61h-334.09C3617.888,3584.39,3618.576,3586.477,3619.295,3588.663Zm-49.161,40.913v366.845c5.934-1.907,5.934-1.907,5.934-7.6v-197.63q0-78.052.053-156.1c0-2.418-.5-3.908-3.027-4.376A19.157,19.157,0,0,1,3570.134,3629.576Zm428.062.223c-5.988,1.8-5.988,1.8-5.988,7.5v351.643c0,5.752,0,5.752,5.988,7.392ZM3614.864,4042.5a7.636,7.636,0,0,1,.7-1.432c2.191-3.129,1.359-5.436-1.425-7.875-4.07-3.565-7.766-7.554-11.633-11.352-8.551-8.4-17.108-16.789-25.811-25.328l-5.57,2.434C3585.754,4013.518,3600.279,4027.982,3614.864,4042.5Zm338.5-.487c14.4-14.375,28.9-28.853,43.357-43.281l-5.573-2.358c-12.327,12.3-24.466,24.413-36.6,36.527C3950.338,4037.106,3950.329,4037.253,3953.361,4042.018Zm.165-458.5c-3.031,5.716-3.031,5.716,1.563,10.31l32.485,32.484c4.131,4.131,4.49,4.151,9.336.516ZM3577.7,3630.14a22.827,22.827,0,0,1,2.172-2.966q17.075-17.161,34.217-34.255c3.719-3.719,3.762-4.9.509-9.043l-43.366,43.341Zm320.219,307.375a5.093,5.093,0,0,0-5.01-5.095c-2.261.115-4.925,2.771-4.988,4.975a5.047,5.047,0,0,0,5.031,5.064A4.7,4.7,0,0,0,3897.924,3937.514Zm-316.582-327.74,1.059,1.446,6-6.027-.969-1.038Zm398.523,411.2q.519.527,1.037,1.057l6.079-5.948-1.106-1.129Z" transform="translate(-3560.81 -3571.434)" fill="url(#linear-gradient)"/>
        <path id="Path_1059" data-name="Path 1059" d="M4006.181,3974.906a27.126,27.126,0,0,1,.606,4.029c.044,13.961.238,27.927-.024,41.883-.36,19.231-7.489,35.656-22.229,48.15a55.7,55.7,0,0,1-32.059,13.535c-4.8.378-9.631.675-14.448.677q-158.187.057-316.376-.043c-19.495-.027-35.7-7.985-47.867-23.278-7.868-9.886-12.614-21.235-12.872-34.082-.322-16.121-.481-32.244-.68-48.366a9.634,9.634,0,0,1,.438-2.09l.9.065v45.344l.994-.01v-46.294c1.762.2,1.789.2,1.791,2.78.01,13.846.068,27.692-.013,41.538-.1,16.249,4.741,30.784,16.023,42.528,9.207,9.582,20.509,16.3,34.094,16.958,16.786.819,33.62.814,50.434.863,37.608.11,75.217.04,112.825.029,56.414-.016,112.829.065,169.243-.148,13.051-.049,24.643-4.843,34.752-13.215,10.637-8.809,17.053-20.087,19.8-33.485a58.9,58.9,0,0,0,1.1-11.269c.123-14.422.039-28.844.062-43.268,0-2.234.094-4.543,3.47-3.179-.67,1.223-1.909,2.439-1.924,3.67-.164,13.694-.145,27.39-.139,41.085a9.531,9.531,0,0,0,.924,2.324,20.839,20.839,0,0,0,.408-2.493c0-13.464-.042-26.929,0-40.394A19.728,19.728,0,0,1,4006.181,3974.906Zm-383.47,105.849-.008.583h321.612l0-.583Zm381.869-58.587q-6.022,52.8-58.751,58.984C3974.107,4083,4005.7,4056.618,4004.579,4022.167Zm-442.306.2c.576,22.7,10.676,39.94,30,51.6,9.663,5.831,25.917,9.343,28.661,6.928C3585.959,4076.926,3566.567,4057.324,3562.273,4022.369Z" transform="translate(-3560.183 -3601.975)" fill="url(#linear-gradient-2)"/>
        <path id="Path_1060" data-name="Path 1060" d="M4006.81,3678.7c-3.9,1.349-4.146,1.2-4.15-2.52-.013-12.923-.1-25.848.023-38.77.124-12.6-2.272-24.537-9.087-35.289a57.163,57.163,0,0,0-18.757-18.3c-10.52-6.42-22.15-8.641-34.315-8.641h-87.318l0-1.137h91.108l0-1.107h-321.6l-.007.691h229.564l.085,1.317c-1.23.078-2.458.226-3.687.226q-85.846.017-171.695.009c-16.5,0-33,.085-49.5-.032-9.234-.065-18.343.951-26.873,4.374a56.047,56.047,0,0,0-21.874,15.616,57.991,57.991,0,0,0-13.256,27.366,63.633,63.633,0,0,0-1.066,11.274c-.121,14.076-.042,28.155-.052,42.232,0,3.865-.158,3.966-4.151,2.767v-22.344c0-6.577.077-13.155-.017-19.731-.178-12.455,2.441-24.4,8.535-35.122,4.853-8.54,12.075-15.361,20.516-20.631,8.532-5.328,17.721-9.069,27.876-9.17q49.958-.5,99.92-.564,69.906-.179,139.814-.165,42.731-.036,85.46-.007c12.06.019,23.865,2.431,34.068,8.591a61.649,61.649,0,0,1,23.778,26.142c5.1,10.467,6.654,21.459,6.656,32.859C4006.813,3651.9,4006.81,3665.169,4006.81,3678.7Zm-385.8-105.33c-38.3-.187-60.653,34.725-58.422,58.6C3566.723,3597.129,3586.1,3577.53,3621.014,3573.37Zm325.015.516c1.253.2,2.5.416,3.76.6,2.813.415,5.674.615,8.434,1.254a56.76,56.76,0,0,1,32.2,20.015c7.625,9.4,12.145,19.961,12.955,32.083a25.983,25.983,0,0,0,.948,4.129C4004.983,3599.212,3977,3572.552,3946.03,3573.886Zm-384.12,104.278h.677v-44.611l-.677.006Zm443.2-44.619-.682,0v44.633l.682-.005Z" transform="translate(-3560.179 -3571.022)" fill="url(#linear-gradient-3)"/>
        <path id="Path_1061" data-name="Path 1061" d="M3588.794,4059.03c-3.21-.01-7.07-4.038-6.948-7.261Z" transform="translate(-3561.842 -3607.935)" fill="url(#linear-gradient)"/>
        <path id="Path_1062" data-name="Path 1062" d="M3798.579,3577.719h-9.789C3790.9,3575.753,3795.128,3575.727,3798.579,3577.719Z" transform="translate(-3577.732 -3571.422)" fill="url(#linear-gradient)"/>
        <path id="Path_1063" data-name="Path 1063" d="M4021.807,3613.156l-6.952-7.162A8.094,8.094,0,0,1,4021.807,3613.156Z" transform="translate(-3595.09 -3573.707)" fill="url(#linear-gradient)"/>
        <path id="Path_1064" data-name="Path 1064" d="M3814.766,3577.859H3804.74A8.348,8.348,0,0,1,3814.766,3577.859Z" transform="translate(-3578.957 -3571.419)" fill="url(#linear-gradient)"/>
        <path id="Path_1065" data-name="Path 1065" d="M3786.615,3915.721q-86.355,0-172.71.071c-7.042.016-13.377-3.881-13.341-13.256q.37-97.086.033-194.174c-.021-8.143,4.686-12.746,13-12.752q42.4-.036,84.8-.007c9.461,0,18.922.063,28.382-.031a16.175,16.175,0,0,1,12.532,5.235c3.894,4.1,7.8,8.213,12.055,11.916a11.289,11.289,0,0,0,6.64,2.767q28.552.324,57.107-.007a11.789,11.789,0,0,0,6.924-2.929c4.936-4.315,9.4-9.161,14.181-13.665,2.83-2.667,6.494-3.277,10.233-3.278q56.591-.026,113.182,0c8.378.007,13.016,4.664,12.994,12.768q-.267,97.432.014,194.866c.021,7.151-4.852,12.542-12.617,12.529Q3873.317,3915.625,3786.615,3915.721Zm-.152-2.078H3958.8c.924,0,1.849.043,2.769-.011a9,9,0,0,0,8.872-9.385c0-4.613-.077-9.228-.076-13.841q.035-91.889.025-183.777a9.136,9.136,0,0,0-1.342-4.44c-2.258-3.765-6-4.583-10.074-4.579-37.611.03-75.222.111-112.833-.008a14.905,14.905,0,0,0-11.64,4.785c-3.74,3.924-7.694,7.643-11.48,11.524a12.27,12.27,0,0,1-9.26,3.792q-27.171-.04-54.341,0a12.207,12.207,0,0,1-9.237-3.83c-4.017-4.139-8.142-8.173-12.222-12.251a12.517,12.517,0,0,0-9.18-4.011q-51.744.035-103.486.007c-4.154,0-8.312-.117-12.46.031-5.807.208-10.517,3.939-10.135,10.423.35,5.977.074,11.99.074,17.987V3902.22c0,8.241,3.159,11.422,11.356,11.422Q3700.3,3913.644,3786.463,3913.642Z" transform="translate(-3563.28 -3580.585)" fill="url(#linear-gradient)"/>
        <path id="Path_1066" data-name="Path 1066" d="M3795.689,3942.455c0-4.723,1.914-6.949,5.95-6.923,4.085.027,5.855,2.25,5.853,7.352,0,4.945-1.376,6.5-5.767,6.53C3796.945,3949.445,3795.688,3947.995,3795.689,3942.455Zm1.4.192c0,4.29,1.014,5.592,4.4,5.647,3.526.058,4.672-1.355,4.67-5.762,0-3.9-1.477-5.671-4.667-5.615C3798.324,3936.974,3797.089,3938.581,3797.089,3942.647Z" transform="translate(-3578.261 -3599.01)" fill="url(#linear-gradient)"/>
        <path id="Path_1067" data-name="Path 1067" d="M3791.492,4059.863c-17.068,0-34.139-.07-51.207.066-3.07.024-3.916-.917-3.9-3.935q.185-28.716,0-57.434c-.019-2.935.991-3.814,3.736-3.81q51.38.064,102.76.01c3.1,0,4.449,1.071,4.424,4.467q-.211,28.37,0,56.742c.019,3.029-.86,3.976-3.909,3.954C3826.092,4059.8,3808.792,4059.863,3791.492,4059.863Zm54.263-63.479H3738.126v61.983h107.628Z" transform="translate(-3573.708 -3603.556)" fill="url(#linear-gradient-10)"/>
        <ellipse id="Ellipse_110" data-name="Ellipse 110" cx="137.788" cy="0.43" rx="137.788" ry="0.43" transform="translate(85.268 374.076)" fill="url(#linear-gradient)"/>
        <path id="Path_1068" data-name="Path 1068" d="M3693.468,4074.46c-.427-1.373-1.22-2.746-1.224-4.12q-.107-44.647.016-89.294c.006-1.673,1.021-3.343,1.567-5.014l.839.294a15.47,15.47,0,0,0-1.03,3.855q-.069,47.068-.008,94.136Z" transform="translate(-3570.315 -3602.12)" fill="url(#linear-gradient)"/>
        <path id="Path_1069" data-name="Path 1069" d="M3910.419,4074.439v-96.718l.56-.149a16.9,16.9,0,0,1,.829,3.661q.07,44.441-.018,88.88c0,1.485-.8,2.967-1.229,4.45Z" transform="translate(-3587.071 -3602.238)" fill="url(#linear-gradient)"/>
        <path id="Path_1070" data-name="Path 1070" d="M3829.26,3902.745c.107,1.778.2,3.366.261,4.287,1.963.776,3.766,1.156,5.067,2.175.492.386.255,2.79-.408,3.313-1.047.827-2.735.846-4.766,1.362.345-.511.135-.344.123-.161-.354,5.37-.351,5.372-5.952,5.373q-24.039,0-48.078,0c-6.191,0-6.191,0-6.923-5.17-1.757-.563-3.48-.716-4.584-1.625-.616-.506-.7-2.836-.139-3.338,1.051-.933,2.755-1.128,4.769-1.835.08-.869.233-2.524.405-4.384Zm-.9,1.347h-58.3c-.136,1.893-.257,3.572-.353,4.9-1.85,1.284-4.679-1.791-5.116,1.792-.044.359,2.909,1.084,4.983,1.819.1,1.149.27,3.029.443,4.96h57.735a4.764,4.764,0,0,0,.424-.8c.589-2.283-1.187-6.709,4.257-4.634.268.1.984-.969,1.491-1.493-.748-.579-1.429-1.477-2.263-1.653-.849-.177-1.848.355-3.026.634C3828.535,3907.634,3828.455,3906.043,3828.357,3904.092Z" transform="translate(-3575.789 -3596.492)" fill="url(#linear-gradient-14)"/>
        <path id="Path_1071" data-name="Path 1071" d="M3800.114,3617.662c-13.942-.791-26.693,11.973-26.788,26.182a27.038,27.038,0,0,0,26.712,27.176c14.779.048,27.083-12.524,26.809-27.466C3826.6,3629.914,3814.25,3616.946,3800.114,3617.662Zm-.025,50.17a23.508,23.508,0,1,1,23.509-23.508A23.508,23.508,0,0,1,3800.089,3667.832Z" transform="translate(-3576.544 -3574.6)" fill="url(#linear-gradient-15)"/>
        <path id="Path_1072" data-name="Path 1072" d="M3801.021,3629.56c-8.2-.465-15.7,7.041-15.752,15.4a15.74,15.74,0,1,0,31.472-.171C3816.594,3636.765,3809.333,3629.138,3801.021,3629.56Zm-.015,29.5a13.824,13.824,0,1,1,13.824-13.823A13.824,13.824,0,0,1,3801.006,3659.062Z" transform="translate(-3577.461 -3575.515)" fill="url(#linear-gradient)"/>
        <rect id="Rectangle_20623" data-name="Rectangle 20623" width="1.73" height="259.923" transform="translate(1.204 110.388)" fill="url(#linear-gradient-17)"/>
        <rect id="Rectangle_20625" data-name="Rectangle 20625" width="1.73" height="259.923" transform="translate(443.923 110.388)" fill="url(#linear-gradient-18)"/>
        <path id="Path_1073" data-name="Path 1073" d="M3583.114,4048.539l-1.266,2.982,6.947,7.261,2.944-2.469-.957-1.161-2.669,2.188-5.406-5.819,1.711-2.461Z" transform="translate(-3561.843 -3607.687)" fill="url(#linear-gradient)"/>
        <path id="Path_1074" data-name="Path 1074" d="M3883.513,4047.212a7.055,7.055,0,1,0,7.055,7.055A7.056,7.056,0,0,0,3883.513,4047.212Zm0,12.733a5.677,5.677,0,1,1,5.677-5.677A5.677,5.677,0,0,1,3883.513,4059.945Z" transform="translate(-3584.463 -3607.585)" fill="url(#linear-gradient)"/>
        <path id="Path_1075" data-name="Path 1075" d="M3715.421,4056.726a3.656,3.656,0,1,0,3.656,3.656A3.657,3.657,0,0,0,3715.421,4056.726Zm0,6.6a2.942,2.942,0,1,1,2.942-2.942A2.942,2.942,0,0,1,3715.421,4063.324Z" transform="translate(-3571.818 -3608.315)" fill="url(#linear-gradient)"/>
        <path id="Path_1076" data-name="Path 1076" d="M3883.785,3994.926a3.772,3.772,0,1,0,3.772,3.772A3.771,3.771,0,0,0,3883.785,3994.926Zm0,6.808a3.035,3.035,0,1,1,3.036-3.036A3.036,3.036,0,0,1,3883.785,4001.734Z" transform="translate(-3584.736 -3603.57)" fill="url(#linear-gradient)"/>
      </g>
      <g id="Group_2760" data-name="Group 2760" transform="translate(363.542 363.307)" opacity="0.11">
        <path id="Path_1077" data-name="Path 1077" d="M5217.041,3671.764v367.811c-6.01-1.645-6.01-1.645-6.01-7.417V3679.3C5211.031,3673.572,5211.031,3673.572,5217.041,3671.764Z" transform="translate(-4786.039 -3623.841)" fill="#fff" stroke="#707070" stroke-width="1"/>
        <path id="Path_1078" data-name="Path 1078" d="M5087.22,4075.958c-4.957-31.164-9.866-62.029-14.806-93.087,5.482,2.478,8.84,2.145,11.195-.934a7.341,7.341,0,0,0-.278-9.2c-2.525-2.822-5.7-3.406-8.916-1.643-3.538,1.941-4.475,5.312-2.757,10.644h-4.481q-99,0-198.007-.062c-3.021,0-4.345.455-4.79,3.9-1.463,11.332-3.385,22.6-5.206,33.889-1.978,12.256-4.065,24.494-6.056,36.749-1.064,6.543-2.027,13.1-3.078,19.927-4.177,0-8.088,0-12,0q-15.8.019-31.61.055c-2.223.009-4.105-.229-5.889-2.041-12.393-12.593-24.952-25.021-37.363-37.6a6.611,6.611,0,0,1-1.854-4.145c-.06-32.559.039-65.118.039-97.677,0-34.072-.111-68.143-.109-102.215q0-57.323.111-114.649c.007-14.547,0-29.1-.169-43.643a9.406,9.406,0,0,1,3.143-7.228c11.795-11.722,23.631-23.406,35.229-35.321,2.632-2.7,5.411-2.834,8.724-2.828,24.044.052,48.089-.055,72.134-.052q52.359.007,104.716.086,72.79,0,145.583-.068c2.178,0,4.108.141,5.918,1.984,12.386,12.6,24.962,25.01,37.35,37.608a7.546,7.546,0,0,1,1.925,4.806q.169,55.812.094,111.622-.021,57.382-.094,114.765,0,65.692.111,131.383a7.749,7.749,0,0,1-2.284,6.145c-12.512,12.311-24.862,24.785-37.34,37.129a6.218,6.218,0,0,1-3.784,1.87c-14.463.121-28.927.067-43.39.047C5088.665,4076.182,5088.1,4076.06,5087.22,4075.958Zm-118.581-129.637q87,0,174,.054c7.792.014,12.681-5.4,12.66-12.572q-.291-97.77-.013-195.542c.022-8.132-4.631-12.8-13.038-12.812q-56.788-.041-113.575,0c-3.751,0-7.429.613-10.269,3.29-4.794,4.519-9.276,9.383-14.23,13.713a11.824,11.824,0,0,1-6.947,2.939q-28.65.35-57.306.007a11.32,11.32,0,0,1-6.663-2.777c-4.269-3.716-8.189-7.847-12.1-11.957a16.235,16.235,0,0,0-12.574-5.254c-9.493.1-18.987.031-28.48.031q-42.546,0-85.094.006c-8.338.007-13.062,4.626-13.041,12.8q.261,97.423-.034,194.847c-.036,9.408,6.321,13.318,13.388,13.3Q4881.984,3946.2,4968.639,3946.322Zm.03-293.216c-13.989-.794-26.785,12.015-26.879,26.273a27.13,27.13,0,0,0,26.8,27.269c14.83.049,27.176-12.568,26.9-27.56a27.163,27.163,0,0,0-7.546-17.735A24.905,24.905,0,0,0,4968.669,3653.106Zm-5.959,301.553c0,5.56,1.261,7.015,6.056,6.983,4.4-.03,5.784-1.59,5.787-6.553,0-5.119-1.773-7.35-5.872-7.377C4964.63,3947.686,4962.71,3949.92,4962.71,3954.659Z" transform="translate(-4752.94 -3620.681)" fill="#fff" stroke="#707070" stroke-width="1"/>
        <path id="Path_1079" data-name="Path 1079" d="M4876.442,4112.145c-.632-.254-1.692-.384-1.812-.789a11.306,11.306,0,0,1-.133-3.1q0-44.275,0-88.548v-8.427h204.948v8.494q0,44.795-.079,89.589c0,.949,1.6,3.861-1.89,2.766.428-1.488,1.228-2.976,1.231-4.466q.11-44.593.019-89.188a16.946,16.946,0,0,0-.833-3.674l-.561.149v97.054l-200.731,0q-.018-47.231.009-94.462a15.558,15.558,0,0,1,1.033-3.869l-.841-.3c-.547,1.677-1.566,3.353-1.572,5.032q-.144,44.8-.016,89.6C4875.218,4109.39,4876.014,4110.768,4876.442,4112.145Zm94.959-16.087c17.359,0,34.72-.065,52.079.06,3.06.021,3.942-.928,3.922-3.968q-.187-28.469,0-56.939c.025-3.409-1.324-4.486-4.439-4.483q-51.558.042-103.116-.01c-2.756,0-3.769.878-3.749,3.823q.195,28.817,0,57.633c-.02,3.029.831,3.974,3.911,3.948C4937.145,4095.985,4954.273,4096.057,4971.4,4096.057Zm-92.476-82.39,0,.61h195.534v-.61Zm180.793,67.82c1.356,9.463-4.186,12.358-11.379,9.262,2.267,3.016,5.559,3.519,9.106,1.393C5061.078,4089.963,5062.089,4086.36,5059.719,4081.486Zm-167.372,9.323c-.919,2.5-.685,4.838,2.144,5.386,1.492.289,3.945-.21,4.685-1.258.938-1.329.578-3.576.8-5.65-1.167,2.346-1.65,5.19-3.053,5.758C4893.69,4096.35,4892.839,4093.565,4892.347,4090.81Zm164.83-53.766c-1.969.17-4.018.965-5.251.283-1.268-.7-1.737-2.84-2.766-4.737-.579,2.595-.357,4.79,1.96,5.951C5053.4,4039.686,5055.709,4039.457,5057.177,4037.043Z" transform="translate(-4761.274 -3648.823)" fill="#fff" stroke="#707070" stroke-width="1"/>
        <path id="Path_1080" data-name="Path 1080" d="M4806.38,3626.667l-2.182-6.632h335.25c-.78,2.295-1.491,4.385-2.254,6.632Z" transform="translate(-4756.104 -3620.035)" fill="#fff" stroke="#707070" stroke-width="1"/>
        <path id="Path_1081" data-name="Path 1081" d="M4752.284,3671.511a19.254,19.254,0,0,0,2.971,1.138c2.531.47,3.039,1.965,3.037,4.391q-.1,78.322-.054,156.644V4032c0,5.715,0,5.715-5.954,7.629Z" transform="translate(-4752.284 -3623.822)" fill="#fff" stroke="#707070" stroke-width="1"/>
        <path id="Path_1082" data-name="Path 1082" d="M5107.546,4113.8l-10.145-.51v-89.154l.342-.041c1.688,10.8,3.344,21.614,5.075,32.413,1.5,9.363,3.12,18.707,4.625,28.07,1.2,7.433,2.3,14.883,3.447,22.325l.108-.095q-1.772,3.544-3.548,7.092Z" transform="translate(-4777.678 -3649.766)" fill="#fff" stroke="#707070" stroke-width="1"/>
        <path id="Path_1083" data-name="Path 1083" d="M4861.637,4113.89q-1.811-3.591-3.622-7.182l.114.109c1.109-6.626,2.244-13.249,3.322-19.881q2.336-14.365,4.605-28.738,2.231-14.039,4.434-28.081a35.63,35.63,0,0,1,1.3-5.972v89.141q-5.145.242-10.263.486Z" transform="translate(-4760.064 -3649.77)" fill="#fff" stroke="#707070" stroke-width="1"/>
        <path id="Path_1084" data-name="Path 1084" d="M4798.268,4115.115l-43.888-43.7,5.589-2.444c8.732,8.569,17.32,16.989,25.9,25.416,3.88,3.811,7.589,7.815,11.672,11.393,2.793,2.447,3.628,4.761,1.43,7.9A7.677,7.677,0,0,0,4798.268,4115.115Z" transform="translate(-4752.438 -3653.067)" fill="#fff" stroke="#707070" stroke-width="1"/>
        <path id="Path_1085" data-name="Path 1085" d="M5168.232,4114.616c-3.042-4.782-3.033-4.928,1.189-9.144,12.177-12.155,24.356-24.308,36.728-36.652l5.592,2.367C5197.236,4085.664,5182.684,4100.19,5168.232,4114.616Z" transform="translate(-4782.732 -3653.057)" fill="#fff" stroke="#707070" stroke-width="1"/>
        <path id="Path_1086" data-name="Path 1086" d="M5168.414,3621.619c14.618,14.594,29.08,29.03,43.535,43.46-4.864,3.647-5.223,3.628-9.369-.518l-32.6-32.6C5165.372,3627.356,5165.372,3627.355,5168.414,3621.619Z" transform="translate(-4782.748 -3620.152)" fill="#fff" stroke="#707070" stroke-width="1"/>
        <path id="Path_1087" data-name="Path 1087" d="M4760.989,3668.433l-6.49-2.934,43.516-43.49c3.266,4.157,3.222,5.342-.511,9.074q-17.175,17.177-34.335,34.373A23.042,23.042,0,0,0,4760.989,3668.433Z" transform="translate(-4752.448 -3620.18)" fill="#fff" stroke="#707070" stroke-width="1"/>
        <path id="Path_1088" data-name="Path 1088" d="M5111.879,4113.472q20.979-.042,41.959-.085c1.848,0,3.694,0,5.756,0l2.474,6.5h-51.235q.585-3.269,1.16-6.516Z" transform="translate(-4778.667 -3656.335)" fill="#fff" stroke="#707070" stroke-width="1"/>
        <path id="Path_1089" data-name="Path 1089" d="M4854.055,4113.265l1.342,6.768h-51.212c.779-2.248,1.511-4.358,2.308-6.661,15.82,0,31.746,0,47.673,0Z" transform="translate(-4756.104 -3656.327)" fill="#fff" stroke="#707070" stroke-width="1"/>
        <path id="Path_1090" data-name="Path 1090" d="M5107.56,4004.652a4.718,4.718,0,0,1-4.984,4.961,5.064,5.064,0,0,1-5.048-5.082c.064-2.211,2.736-4.876,5.006-4.99A5.11,5.11,0,0,1,5107.56,4004.652Z" transform="translate(-4777.687 -3647.959)" fill="#fff" stroke="#707070" stroke-width="1"/>
        <path id="Path_1091" data-name="Path 1091" d="M4970.3,3952.069H4797.37c-8.225,0-11.4-3.192-11.4-11.461V3763.83c0-6.017.277-12.051-.074-18.048-.383-6.507,4.343-10.252,10.17-10.46,4.162-.148,8.335-.031,12.5-.031q51.924,0,103.846-.007a12.566,12.566,0,0,1,9.212,4.025c4.094,4.092,8.234,8.141,12.264,12.295a12.253,12.253,0,0,0,9.27,3.843q27.265-.035,54.529,0a12.308,12.308,0,0,0,9.291-3.806c3.8-3.895,7.768-7.626,11.521-11.564a14.96,14.96,0,0,1,11.68-4.8c37.741.12,75.483.038,113.225.009,4.086,0,7.842.817,10.107,4.595a9.145,9.145,0,0,1,1.347,4.456q.057,92.208-.024,184.414c0,4.63.078,9.26.075,13.889a9.026,9.026,0,0,1-8.9,9.417c-.922.054-1.851.012-2.777.012H4970.3Zm30.393-26.9h-60.434c-.172,1.866-.326,3.526-.406,4.4-2.02.708-3.73.9-4.785,1.84-.567.5-.479,2.841.138,3.349,1.108.912,2.837,1.065,4.6,1.631.734,5.185.734,5.188,6.947,5.188q24.122,0,48.245,0c5.619,0,5.616,0,5.973-5.391.012-.183.222-.352-.124.163,2.038-.519,3.731-.537,4.782-1.367.666-.525.9-2.938.409-3.325-1.306-1.023-3.114-1.4-5.084-2.182C5000.9,3928.548,5000.8,3926.955,5000.694,3925.171Z" transform="translate(-4754.756 -3628.512)" fill="#fff" stroke="#707070" stroke-width="1"/>
      </g>
      <g id="Group_2761" data-name="Group 2761" transform="translate(396.66 476.587)" opacity="0.13">
        <path id="Path_1093" data-name="Path 1093" d="M4876.422,4111.126c-.626-.252-1.675-.38-1.793-.781a11.2,11.2,0,0,1-.132-3.067q0-43.828,0-87.655v-8.342h202.879v8.408q0,44.343-.078,88.685c0,.938,1.583,3.822-1.871,2.738.424-1.474,1.215-2.946,1.219-4.422q.108-44.143.019-88.288a16.722,16.722,0,0,0-.825-3.637l-.555.147v96.074l-198.7,0q-.018-46.754.009-93.509a15.4,15.4,0,0,1,1.023-3.83l-.833-.293c-.542,1.66-1.551,3.319-1.556,4.982q-.143,44.347-.016,88.7C4875.21,4108.4,4876,4109.763,4876.422,4111.126Zm94-15.926c17.184,0,34.369-.064,51.553.06,3.028.021,3.9-.919,3.883-3.928q-.186-28.182,0-56.364c.026-3.374-1.31-4.44-4.394-4.438q-51.038.041-102.075-.01c-2.728,0-3.731.869-3.711,3.785q.193,28.526,0,57.052c-.019,3,.823,3.934,3.872,3.908C4936.511,4095.13,4953.467,4095.2,4970.423,4095.2Zm-91.543-81.559,0,.6h193.56v-.6Zm178.968,67.135c1.343,9.368-4.143,12.233-11.264,9.169,2.244,2.986,5.5,3.484,9.014,1.379C5059.194,4089.168,5060.195,4085.6,5057.848,4080.777Zm-165.682,9.229c-.91,2.47-.678,4.789,2.122,5.332,1.476.286,3.906-.208,4.638-1.246.929-1.316.571-3.541.792-5.593-1.155,2.322-1.633,5.138-3.021,5.7C4893.5,4095.491,4892.653,4092.734,4892.167,4090.007Zm163.166-53.224c-1.949.168-3.977.955-5.2.28-1.254-.691-1.719-2.812-2.737-4.689-.572,2.569-.353,4.741,1.94,5.891C5051.6,4039.4,5053.879,4039.172,5055.332,4036.783Z" transform="translate(-4793.224 -3758.139)" fill="#fff"/>
        <path id="Path_1094" data-name="Path 1094" d="M5107.444,4112.895l-10.043-.505v-88.253l.338-.04c1.671,10.7,3.311,21.4,5.024,32.085,1.486,9.268,3.087,18.518,4.579,27.786,1.184,7.358,2.278,14.733,3.413,22.1l.107-.093-3.512,7.021Z" transform="translate(-4811.713 -3759.202)" fill="#fff"/>
        <path id="Path_1095" data-name="Path 1095" d="M4861.6,4112.984l-3.585-7.11.113.109c1.1-6.56,2.221-13.116,3.289-19.681q2.312-14.22,4.558-28.448,2.21-13.9,4.389-27.8a35.218,35.218,0,0,1,1.287-5.912v88.242q-5.093.239-10.159.482S4861.6,4112.984,4861.6,4112.984Z" transform="translate(-4791.86 -3759.206)" fill="#fff"/>
        <path id="Path_1096" data-name="Path 1096" d="M5111.868,4113.471l41.536-.085c1.829,0,3.657,0,5.7,0l2.449,6.437h-50.717q.579-3.236,1.148-6.45Z" transform="translate(-4812.827 -3766.606)" fill="#fff"/>
        <path id="Path_1097" data-name="Path 1097" d="M4853.551,4113.265l1.329,6.7h-50.7c.771-2.225,1.5-4.314,2.285-6.593,15.661,0,31.426,0,47.191,0Z" transform="translate(-4787.395 -3766.597)" fill="#fff"/>
        <path id="Path_1098" data-name="Path 1098" d="M4968.439,3949.88H4797.253c-8.143,0-11.281-3.159-11.281-11.345V3763.542c0-5.957.275-11.929-.074-17.866-.378-6.441,4.3-10.148,10.068-10.354,4.121-.147,8.251-.031,12.376-.031q51.4,0,102.8-.007a12.437,12.437,0,0,1,9.119,3.985c4.053,4.051,8.15,8.058,12.14,12.17a12.13,12.13,0,0,0,9.176,3.8q26.989-.035,53.979,0a12.183,12.183,0,0,0,9.2-3.767c3.762-3.855,7.689-7.549,11.4-11.447a14.809,14.809,0,0,1,11.563-4.753c37.36.118,74.721.037,112.082.008,4.045,0,7.763.809,10.006,4.548a9.065,9.065,0,0,1,1.333,4.411q.056,91.277-.025,182.552c0,4.583.077,9.166.074,13.749a8.935,8.935,0,0,1-8.813,9.322c-.913.054-1.833.012-2.749.012H4968.439Zm30.085-26.626H4938.7c-.171,1.847-.323,3.49-.4,4.355-2,.7-3.693.9-4.737,1.821-.562.5-.474,2.813.137,3.315,1.1.9,2.809,1.055,4.554,1.614.727,5.133.727,5.136,6.877,5.136q23.878,0,47.756,0c5.563,0,5.561,0,5.913-5.337.012-.181.22-.348-.122.161,2.017-.514,3.693-.532,4.733-1.354.659-.52.895-2.908.406-3.292-1.293-1.012-3.083-1.389-5.033-2.161C4998.729,3926.6,4998.633,3925.019,4998.525,3923.254Z" transform="translate(-4785.877 -3735.247)" fill="#fff"/>
      </g>
      <path id="Path_1053" data-name="Path 1053" d="M71.293,8.706A10.407,10.407,0,0,0,64.452.953,15.655,15.655,0,0,0,53.775.924,10.471,10.471,0,0,0,46.988,7.55c-.068.19-.127.383-.186.576-.024.076-.06.127-.146.125-.11,0-.091-.088-.1-.155s-.005-.161-.007-.242l-.158-6.164c-.009-.4-.01-.4-.4-.388l-7.53.191c-.418.012-.419.012-.407.443q.155,6.059.307,12.115a9.611,9.611,0,0,1-.222,2.682,2.6,2.6,0,0,1-1.974,2.047,5.312,5.312,0,0,1-1.6.11,2.57,2.57,0,0,1-2.49-1.915,9.127,9.127,0,0,1-.369-2.664q-.163-6.149-.312-12.3c-.005-.222-.022-.347-.307-.339q-3.826.115-7.652.2c-.25.005-.3.1-.3.325.134,4.179.173,8.36.36,12.539,0,.07,0,.141.007.212a.119.119,0,0,1-.091.136c-.079.022-.106-.041-.134-.093s-.049-.11-.074-.166q-2.75-6.242-5.495-12.485a.443.443,0,0,0-.5-.311q-3.749.114-7.5.19a.515.515,0,0,0-.557.4Q4.628,14.569.077,26.508c-.125.328-.125.33.212.322,2.854-.074,5.708-.149,8.563-.212a.37.37,0,0,0,.42-.311q1.7-5.831,3.422-11.658.412-1.4.825-2.789c.029-.1.046-.2.186-.2s.136.1.17.181.059.173.088.258q2.45,6.975,4.893,13.954a.362.362,0,0,0,.424.3c2.854-.083,5.708-.153,8.562-.225l.3-.008a.715.715,0,0,0-.112-.362c-.528-1.2-1.06-2.4-1.587-3.607-.036-.085-.138-.185-.027-.273.093-.075.166.028.235.081a9.551,9.551,0,0,0,4.216,1.666,25.276,25.276,0,0,0,5.81.2,18.244,18.244,0,0,0,3.914-.636,7.5,7.5,0,0,0,5.7-5.729c.078-.323.126-.654.195-.98.016-.072.008-.179.114-.192.129-.016.126.106.16.183.015.037.016.079.027.118a10.549,10.549,0,0,0,5.866,7,13.943,13.943,0,0,0,5.336,1.243,15.767,15.767,0,0,0,6.722-1.035A10.44,10.44,0,0,0,71.16,16.8,15.291,15.291,0,0,0,71.293,8.706ZM62.7,16.822a4.51,4.51,0,0,1-1.3,2.086,3.61,3.61,0,0,1-5.135-.54,6.808,6.808,0,0,1-1.221-3,16.544,16.544,0,0,1,.044-6.628,5.37,5.37,0,0,1,1.033-2.272,3.58,3.58,0,0,1,5.668.154,7.168,7.168,0,0,1,1.142,2.847,18.8,18.8,0,0,1,.309,2.863A13.839,13.839,0,0,1,62.7,16.822Z" transform="matrix(1, 0.017, -0.017, 1, 543.396, 509.547)" fill-rule="evenodd" fill="url(#linear-gradient-23)"/>
    </g>
  </g>
</svg>
