<svg xmlns="http://www.w3.org/2000/svg" xmlns:xlink="http://www.w3.org/1999/xlink" width="206" height="190" viewBox="0 0 206 190">
  <defs>
    <clipPath id="clip-path">
      <rect width="151.317" height="4.729" fill="none"/>
    </clipPath>
    <clipPath id="clip-path-2">
      <rect width="27.735" height="4.729" fill="none"/>
    </clipPath>
    <clipPath id="clip-path-3">
      <rect width="28.294" height="4.729" fill="none"/>
    </clipPath>
    <clipPath id="clip-path-5">
      <rect width="67.777" height="4.729" fill="none"/>
    </clipPath>
  </defs>
  <g id="Group_3090" data-name="Group 3090" transform="translate(-1591 -1314)">
    <g id="Group_3082" data-name="Group 3082" transform="translate(-10 -82)">
      <g id="Group_1245" data-name="Group 1245" transform="translate(1783.889 1493.05) rotate(90)">
        <rect id="Rectangle_10382" data-name="Rectangle 10382" width="4.729" height="39.405" transform="translate(0.788 4.729) rotate(-90)" fill="#0f9aad"/>
        <rect id="Rectangle_10383" data-name="Rectangle 10383" width="4.729" height="39.405" transform="translate(37.041 148.953) rotate(-90)" fill="#0f9aad"/>
        <rect id="Rectangle_10376" data-name="Rectangle 10376" width="4.729" height="66.201" transform="translate(0 0.788)" fill="#0f9aad"/>
        <rect id="Rectangle_10379" data-name="Rectangle 10379" width="4.729" height="148.165" transform="translate(36.253 0.788)" fill="#0f9aad"/>
        <rect id="Rectangle_10380" data-name="Rectangle 10380" width="4.729" height="148.165" transform="translate(72.506 0.788)" fill="#0f9aad"/>
      </g>
      <g id="Repeat_Grid_7" data-name="Repeat Grid 7" transform="translate(1634.936 1420.543)" clip-path="url(#clip-path)">
        <g transform="translate(-193.75 -277.25)">
          <rect id="Rectangle_10384" data-name="Rectangle 10384" width="3" height="10" transform="translate(203.75 277.25) rotate(90)" fill="#0f9aad"/>
        </g>
        <g transform="translate(-176.75 -277.25)">
          <rect id="Rectangle_10384-2" data-name="Rectangle 10384" width="3" height="10" transform="translate(203.75 277.25) rotate(90)" fill="#0f9aad"/>
        </g>
        <g transform="translate(-159.75 -277.25)">
          <rect id="Rectangle_10384-3" data-name="Rectangle 10384" width="3" height="10" transform="translate(203.75 277.25) rotate(90)" fill="#0f9aad"/>
        </g>
        <g transform="translate(-142.75 -277.25)">
          <rect id="Rectangle_10384-4" data-name="Rectangle 10384" width="3" height="10" transform="translate(203.75 277.25) rotate(90)" fill="#0f9aad"/>
        </g>
        <g transform="translate(-125.75 -277.25)">
          <rect id="Rectangle_10384-5" data-name="Rectangle 10384" width="3" height="10" transform="translate(203.75 277.25) rotate(90)" fill="#0f9aad"/>
        </g>
        <g transform="translate(-108.75 -277.25)">
          <rect id="Rectangle_10384-6" data-name="Rectangle 10384" width="3" height="10" transform="translate(203.75 277.25) rotate(90)" fill="#0f9aad"/>
        </g>
        <g transform="translate(-91.75 -277.25)">
          <rect id="Rectangle_10384-7" data-name="Rectangle 10384" width="3" height="10" transform="translate(203.75 277.25) rotate(90)" fill="#0f9aad"/>
        </g>
        <g transform="translate(-74.75 -277.25)">
          <rect id="Rectangle_10384-8" data-name="Rectangle 10384" width="3" height="10" transform="translate(203.75 277.25) rotate(90)" fill="#0f9aad"/>
        </g>
        <g transform="translate(-57.75 -277.25)">
          <rect id="Rectangle_10384-9" data-name="Rectangle 10384" width="3" height="10" transform="translate(203.75 277.25) rotate(90)" fill="#0f9aad"/>
        </g>
      </g>
      <g id="Repeat_Grid_10" data-name="Repeat Grid 10" transform="translate(1786.252 1425.272) rotate(90)" clip-path="url(#clip-path-2)">
        <g transform="translate(-193.75 -277.25)">
          <rect id="Rectangle_10384-10" data-name="Rectangle 10384" width="3" height="10" transform="translate(203.75 277.25) rotate(90)" fill="#0f9aad"/>
        </g>
        <g transform="translate(-176.75 -277.25)">
          <rect id="Rectangle_10384-11" data-name="Rectangle 10384" width="3" height="10" transform="translate(203.75 277.25) rotate(90)" fill="#0f9aad"/>
        </g>
      </g>
      <g id="Repeat_Grid_11" data-name="Repeat Grid 11" transform="translate(1634.936 1461.618) rotate(90)" clip-path="url(#clip-path-3)">
        <g transform="translate(-193.75 -277.25)">
          <rect id="Rectangle_10384-12" data-name="Rectangle 10384" width="3" height="10" transform="translate(203.75 277.25) rotate(90)" fill="#0f9aad"/>
        </g>
        <g transform="translate(-176.75 -277.25)">
          <rect id="Rectangle_10384-13" data-name="Rectangle 10384" width="3" height="10" transform="translate(203.75 277.25) rotate(90)" fill="#0f9aad"/>
        </g>
      </g>
      <g id="Repeat_Grid_8" data-name="Repeat Grid 8" transform="translate(1634.936 1455.22)" clip-path="url(#clip-path)">
        <g transform="translate(-193.75 -277.25)">
          <rect id="Rectangle_10384-14" data-name="Rectangle 10384" width="3" height="10" transform="translate(203.75 277.25) rotate(90)" fill="#0f9aad"/>
        </g>
        <g transform="translate(-176.75 -277.25)">
          <rect id="Rectangle_10384-15" data-name="Rectangle 10384" width="3" height="10" transform="translate(203.75 277.25) rotate(90)" fill="#0f9aad"/>
        </g>
        <g transform="translate(-159.75 -277.25)">
          <rect id="Rectangle_10384-16" data-name="Rectangle 10384" width="3" height="10" transform="translate(203.75 277.25) rotate(90)" fill="#0f9aad"/>
        </g>
        <g transform="translate(-142.75 -277.25)">
          <rect id="Rectangle_10384-17" data-name="Rectangle 10384" width="3" height="10" transform="translate(203.75 277.25) rotate(90)" fill="#0f9aad"/>
        </g>
        <g transform="translate(-125.75 -277.25)">
          <rect id="Rectangle_10384-18" data-name="Rectangle 10384" width="3" height="10" transform="translate(203.75 277.25) rotate(90)" fill="#0f9aad"/>
        </g>
        <g transform="translate(-108.75 -277.25)">
          <rect id="Rectangle_10384-19" data-name="Rectangle 10384" width="3" height="10" transform="translate(203.75 277.25) rotate(90)" fill="#0f9aad"/>
        </g>
        <g transform="translate(-91.75 -277.25)">
          <rect id="Rectangle_10384-20" data-name="Rectangle 10384" width="3" height="10" transform="translate(203.75 277.25) rotate(90)" fill="#0f9aad"/>
        </g>
        <g transform="translate(-74.75 -277.25)">
          <rect id="Rectangle_10384-21" data-name="Rectangle 10384" width="3" height="10" transform="translate(203.75 277.25) rotate(90)" fill="#0f9aad"/>
        </g>
        <g transform="translate(-57.75 -277.25)">
          <rect id="Rectangle_10384-22" data-name="Rectangle 10384" width="3" height="10" transform="translate(203.75 277.25) rotate(90)" fill="#0f9aad"/>
        </g>
      </g>
      <g id="Repeat_Grid_9" data-name="Repeat Grid 9" transform="translate(1634.936 1493.05)" clip-path="url(#clip-path-5)">
        <g transform="translate(-193.75 -277.25)">
          <rect id="Rectangle_10384-23" data-name="Rectangle 10384" width="3" height="10" transform="translate(203.75 277.25) rotate(90)" fill="#0f9aad"/>
        </g>
        <g transform="translate(-176.75 -277.25)">
          <rect id="Rectangle_10384-24" data-name="Rectangle 10384" width="3" height="10" transform="translate(203.75 277.25) rotate(90)" fill="#0f9aad"/>
        </g>
        <g transform="translate(-159.75 -277.25)">
          <rect id="Rectangle_10384-25" data-name="Rectangle 10384" width="3" height="10" transform="translate(203.75 277.25) rotate(90)" fill="#0f9aad"/>
        </g>
        <g transform="translate(-142.75 -277.25)">
          <rect id="Rectangle_10384-26" data-name="Rectangle 10384" width="3" height="10" transform="translate(203.75 277.25) rotate(90)" fill="#0f9aad"/>
        </g>
      </g>
      <circle id="Ellipse_88" data-name="Ellipse 88" cx="11" cy="11" r="11" transform="translate(1620 1411)" fill="#0f9aad"/>
      <circle id="Ellipse_89" data-name="Ellipse 89" cx="11" cy="11" r="11" transform="translate(1705 1485)" fill="#0f9aad"/>
    </g>
    <g id="Group_3089" data-name="Group 3089" transform="translate(1538.683 1239.576)">
      <g id="Rectangle_10371" data-name="Rectangle 10371" transform="translate(52.317 74.424)" fill="none" stroke="#0c0439" stroke-width="2.5" opacity="0.002">
        <rect width="206" height="190" stroke="none"/>
        <rect x="1.25" y="1.25" width="203.5" height="187.5" fill="none"/>
      </g>
    </g>
  </g>
</svg>
