<svg id="Component_15_1" data-name="Component 15 – 1" xmlns="http://www.w3.org/2000/svg" width="67.058" height="30.154" viewBox="0 0 67.058 30.154">
  <path id="Path_746" data-name="Path 746" d="M478.109,382.643l-.04-.066-2.207-3.673-.766-1.275-.04-.066-1.5-2.507h5.463l8-13.257-.607-1-1.857-3.091-.123-.2H466.919l0,0H461.5l.832,1.4.382.635.7,1.172-.76,1.264-.326.543-3.013,5.014-1.49,2.479-.017.028-1.483,2.468-.024.039-1.506,2.507-1.506,2.507-3.013,5.014-3.013,5.014h1.161l-.019.032h5.836l3.013-5.014,3.013-5.014,1.506-2.507.019-.032H466.4l3.432,5.708,4.141,6.894h6.842l.623-1.037.38-.632-2.01-3.345Zm-13.3-12.6,1.486-2.474,3.013-5.014.019-.032h8.95l.8,1.323-2.218,3.691-1.505,2.505Z" transform="translate(-419.956 -357.503)" fill="#fff"/>
  <path id="Path_747" data-name="Path 747" d="M200.885,375.085l.731-1.216-.313-.518-.464-.773-1.187-1.975-.32-.532H187.537l1.506-2.507,3.013-5.014h9.366l.579.964-1.021,1.7.212.353.672,1.117h4.07l2.484-4.134,1.1-1.823-.4-.661-1.52-2.53H190.821l-2.413,1.373-.132.075-1.656.943-1.576,2.623-3.013,5.014-1.506,2.507-1.249,2.078.149.247.109.181.331.551,1.176,1.956h11.4l.673,1.121-2.407,4.005-1.439,2.395H172.992l-2.414,2.883.7,1.161.583.971h21.494l3.013-5.014,3.013-5.014Z" transform="translate(-170.578 -357.532)" fill="#fff"/>
</svg>
