<svg xmlns="http://www.w3.org/2000/svg" width="36" height="36" viewBox="0 0 36 36">
  <g id="Group_3061" data-name="Group 3061" transform="translate(-1572 -490)">
    <rect id="Rectangle_20813" data-name="Rectangle 20813" width="36" height="36" transform="translate(1572 490)" fill="#fff" opacity="0"/>
    <g id="Group_3060" data-name="Group 3060" transform="translate(1576 493)">
      <path id="Path_249" data-name="Path 249" d="M2959.573,6119.772c-2.984,3.258-3.87,7.071-3.873,11.179q-.007,8.907,0,17.813c0,1.312-.185,1.5-1.487,1.5q-5.868.005-11.736,0c-1.307,0-1.481-.178-1.481-1.5q0-9.322,0-18.645a14.3,14.3,0,0,1,1.895-7.489,5.343,5.343,0,0,1,5.123-2.886C2951.808,6119.861,2955.611,6119.772,2959.573,6119.772Zm-6.224,12.115c.52-.012,1.047.129,1.037-.69-.008-.685-.347-.761-.885-.733s-1.1-.093-1.076.8C2952.449,6132.063,2952.963,6131.85,2953.349,6131.887Zm-9.918,0c.518.023.993.071.977-.725-.015-.742-.456-.695-.943-.683s-1-.139-1.007.691C2942.45,6131.976,2942.923,6131.905,2943.431,6131.887Zm3.3,0c.453-.034,1,.167,1.006-.668.009-.77-.415-.769-.944-.743-.469.022-.995-.149-1.009.673C2945.769,6131.923,2946.2,6131.923,2946.729,6131.89Zm3.45-1.4c-.565,0-1.077-.124-1.1.682-.02.87.56.711,1.055.734s.912.061.916-.684C2951.059,6130.451,2950.64,6130.441,2950.18,6130.486Z" transform="translate(-2940.992 -6119.735)" fill="#dce0ec"/>
      <path id="Path_250" data-name="Path 250" d="M3088.3,6288.438v-3.716l2.323,3.716Z" transform="translate(-3072.519 -6267.046)" fill="#dce0ec"/>
      <path id="Path_251" data-name="Path 251" d="M3097.56,6124.263c-3.276,0-5.932,4.68-5.932,10.454s2.656,10.453,5.932,10.453,5.932-4.68,5.932-10.453S3100.836,6124.263,3097.56,6124.263Zm0,16.236c-1.812,0-3.281-2.589-3.281-5.783s1.469-5.782,3.281-5.782,3.281,2.588,3.281,5.782S3099.373,6140.5,3097.56,6140.5Z" transform="translate(-3075.49 -6123.778)" fill="#dce0ec"/>
    </g>
  </g>
</svg>
