<svg xmlns="http://www.w3.org/2000/svg" width="122" height="122" viewBox="0 0 122 122">
  <g id="Group_3068" data-name="Group 3068" transform="translate(-422 -1298)">
    <g id="Group_2589" data-name="Group 2589" transform="translate(544 1298) rotate(90)" opacity="0">
      <path id="Path_1055" data-name="Path 1055" d="M5,122H117a5,5,0,0,0,5-5V5a5,5,0,0,0-5-5H5A5,5,0,0,0,0,5V117A5,5,0,0,0,5,122Z" fill="#202255"/>
    </g>
    <g id="Group_2593" data-name="Group 2593" transform="translate(430 1305)">
      <rect id="Rectangle_20524" data-name="Rectangle 20524" width="32" height="23" transform="translate(63 4)" fill="#0f9aad"/>
      <rect id="Rectangle_20528" data-name="Rectangle 20528" width="72" height="6" transform="translate(16 14) rotate(90)" fill="#0f9aad"/>
      <rect id="Rectangle_20529" data-name="Rectangle 20529" width="36" height="6" transform="translate(13 14)" fill="#0f9aad"/>
      <rect id="Rectangle_20525" data-name="Rectangle 20525" width="7" height="31" transform="translate(53)" fill="#0f9aad"/>
      <rect id="Rectangle_20526" data-name="Rectangle 20526" width="7" height="31" transform="translate(98)" fill="#0f9aad"/>
      <path id="Polygon_47" data-name="Polygon 47" d="M12.139,1.457a1,1,0,0,1,1.722,0L25.108,20.491A1,1,0,0,1,24.248,22H1.752a1,1,0,0,1-.861-1.509Z" transform="translate(26 106) rotate(180)" fill="#0f9aad"/>
    </g>
  </g>
</svg>
