<svg xmlns="http://www.w3.org/2000/svg" width="122" height="122" viewBox="0 0 122 122">
  <g id="Group_3071" data-name="Group 3071" transform="translate(-422 -1470)">
    <g id="Group_2589" data-name="Group 2589" transform="translate(981 88) rotate(90)" opacity="0">
      <path id="Path_1055" data-name="Path 1055" d="M5,0H117a5,5,0,0,1,5,5V117a5,5,0,0,1-5,5H5a5,5,0,0,1-5-5V5A5,5,0,0,1,5,0Z" transform="translate(1382 437)" fill="#202255"/>
    </g>
    <path id="Path_1056" data-name="Path 1056" d="M-693.271,309.462a37.17,37.17,0,0,1-18.413-4.769,37.4,37.4,0,0,1-14.08-13.777,37.483,37.483,0,0,1-5.192-19.038l-.015-2.015h-6.821l10.631-15.092,10.617,15.063h-6.65l-.095,1.93a28.4,28.4,0,0,0,3.824,14.9,30.119,30.119,0,0,0,13.822,12.609,29.221,29.221,0,0,0,12.175,2.631,29.992,29.992,0,0,0,25.136-13.519,29.872,29.872,0,0,0-5-38.756,28.76,28.76,0,0,0-19.833-7.723c-.817,0-1.654.031-2.489.094a29.378,29.378,0,0,0-19.211,8.991l-4.408-6.253a37.24,37.24,0,0,1,25.9-10.433,37.341,37.341,0,0,1,13.9,2.7A37.584,37.584,0,0,1-656.4,278.587a37.672,37.672,0,0,1-36.176,30.869Q-692.926,309.462-693.271,309.462Z" transform="translate(-211.786 1802.885) rotate(180)" fill="#0f9aad"/>
  </g>
</svg>
