<svg xmlns="http://www.w3.org/2000/svg" xmlns:xlink="http://www.w3.org/1999/xlink" width="68" height="68" viewBox="0 0 68 68">
  <defs>
    <radialGradient id="radial-gradient" cx="0.5" cy="0.5" r="0.763" gradientUnits="objectBoundingBox">
      <stop offset="0" stop-color="#fff"/>
      <stop offset="1" stop-color="#fff" stop-opacity="0.18"/>
    </radialGradient>
  </defs>
  <g id="Group_2710" data-name="Group 2710" transform="translate(-856.5 -994)">
    <circle id="Ellipse_115" data-name="Ellipse 115" cx="34" cy="34" r="34" transform="translate(856.5 994)" fill="url(#radial-gradient)"/>
    <g id="Group_2708" data-name="Group 2708" transform="translate(-766.557 -27.569)">
      <path id="Path_1072" data-name="Path 1072" d="M1640.048,1099.871a7.913,7.913,0,0,1-2.2-6.225,7.584,7.584,0,0,1,7.575-7.237c1.021-.017,2.056-.011,3.056,0l.853,0,0,2.582c-.126,0-.256-.008-.387-.008-.941,0-1.882,0-2.823,0h-.379a4.776,4.776,0,0,0-5.062,4.714,5.427,5.427,0,0,0,1.486,4.332h0a5.014,5.014,0,0,0,2.076,1.238,6.416,6.416,0,0,0,1.778.252c.975.021,1.931.014,2.944.007l.686,0-.182,2.6c-.207-.006-.407-.01-.609-.011q-.853,0-1.7,0h-1.367A8.038,8.038,0,0,1,1640.048,1099.871Z" transform="translate(0 -37.912)" fill="#020322"/>
      <path id="Path_1073" data-name="Path 1073" d="M1794.869,1099.339h0c.413,0,.839.007,1.266.007l.615,0c.626,0,1.273,0,1.913-.008a4.7,4.7,0,0,0,4.392-2.663,5.254,5.254,0,0,0-.238-5.423,5.447,5.447,0,0,0-.721-.9,4.973,4.973,0,0,0-3.586-1.427c-.838-.01-1.688-.007-2.51,0l-1.114,0-.1-2.711,1.024-.007c.934-.007,1.9-.015,2.845.009a7.62,7.62,0,0,1,5.4,2.085,8.3,8.3,0,0,1,.752,10.6,6.848,6.848,0,0,1-5.127,2.931c-1.219.11-2.474.112-3.688.114-.368,0-.745,0-1.12.005Z" transform="translate(-130.169 -37.75)" fill="#020322"/>
      <path id="Path_1074" data-name="Path 1074" d="M1710.162,1123.927l-.011,2.582-21.365-.2.014-2.584Z" transform="translate(-42.259 -68.87)" fill="#020322"/>
      <path id="Path_1075" data-name="Path 1075" d="M1683.4,1069.861l-1.688,1.954-33.561-29.179,1.691-1.953Z" transform="translate(-8.559)" fill="#020322"/>
    </g>
  </g>
</svg>
