<svg id="Component_77_1" data-name="Component 77 – 1" xmlns="http://www.w3.org/2000/svg" width="140.939" height="108.222" viewBox="0 0 140.939 108.222">
  <path id="Path_1058" data-name="Path 1058" d="M1075.154,367.807a70.445,70.445,0,0,1,35.023,10.261l-8.673,15.038c-4.338-1.795-8.441-3.869-12.776-5.18s-8.924-1.867-13.575-2.787Z" transform="translate(-1002.989 -367.803)" fill="#147891"/>
  <path id="Path_1059" data-name="Path 1059" d="M1040.413,385.582a53.245,53.245,0,0,0-26.12,7.921l-8.909-15.425a70.513,70.513,0,0,1,35.029-10.278Z" transform="translate(-971.615 -367.8)" fill="#147891"/>
  <path id="Path_1060" data-name="Path 1060" d="M973.1,425.314l-15.458-8.921A71.186,71.186,0,0,1,981.3,389.566l8.922,15.441A53.666,53.666,0,0,0,973.1,425.314Z" transform="translate(-950.146 -377.588)" fill="#147891"/>
  <path id="Path_1061" data-name="Path 1061" d="M1159.921,416.393l-15.445,8.914a53.755,53.755,0,0,0-17.139-20.295l8.924-15.461A71.373,71.373,0,0,1,1159.921,416.393Z" transform="translate(-1026.454 -377.581)" fill="#147891"/>
  <path id="Path_1062" data-name="Path 1062" d="M950.217,443.5l15.5,8.945a53.668,53.668,0,0,0-3.652,24.69c-.473.046-.779.1-1.086.1-5.222.005-10.445-.012-15.667.021-.884.006-1.206-.283-1.237-1.168a72.264,72.264,0,0,1,5.474-31.116C949.742,444.512,949.958,444.063,950.217,443.5Z" transform="translate(-944.022 -401.839)" fill="#147891"/>
  <path id="Path_1063" data-name="Path 1063" d="M1164.547,477.032c-.214-12.7-.214-12.7-3.68-24.612L1176.3,443.5a66.39,66.39,0,0,1,4.462,13.325,75.565,75.565,0,0,1,1.666,19.239c-.019.619-.029,1.186-.927,1.18-5.541-.032-11.083-.035-16.625-.053C1164.794,477.193,1164.717,477.119,1164.547,477.032Z" transform="translate(-1041.532 -401.842)" fill="#147891"/>
  <path id="Path_1064" data-name="Path 1064" d="M944.958,510.645H962.9a54.691,54.691,0,0,0,7.974,20.7l-15.428,8.914A70.6,70.6,0,0,1,944.958,510.645Z" transform="translate(-944.443 -432.034)" fill="#147891"/>
  <path id="Path_1065" data-name="Path 1065" d="M1167.556,540.236l-15.363-8.869a54.989,54.989,0,0,0,7.922-20.705h17.771C1178.4,516.465,1172.848,532.409,1167.556,540.236Z" transform="translate(-1037.632 -432.042)" fill="#147891"/>
  <path id="Path_1066" data-name="Path 1066" d="M1063.563,488.528a10.541,10.541,0,1,1-10.62,10.484A10.47,10.47,0,0,1,1063.563,488.528Z" transform="translate(-993.001 -422.088)" fill="#147891"/>
  <path id="Path_1067" data-name="Path 1067" d="M1089.922,488.814c.4-6.894-2.385-11.713-8.528-14.788l38.808-12.693.12.223Z" transform="translate(-1005.795 -409.86)" fill="#147891"/>
</svg>
